<svg xmlns="http://www.w3.org/2000/svg" viewBox="0 0 256 256" width="400" style="enable-background:new 0 0 256 256" xml:space="preserve"><style>.st6{fill:#c5e5ff}.st12{fill:#ffb69f}.st13{fill:#afafaf}</style><g id="Layer_1"><path class="st12" d="M178.14 65.185a10.758 10.758 0 0 0-8.805-4.564h-3.789v15.07c0 2.355-.215 4.432-.56 6.545h4.349c2.648 0 5.059-.958 6.943-2.53 4.364-3.667 5.075-10.045 1.862-14.521zM90.465 75.691v-15.07h-4.047c-3.66 0-6.857 1.808-8.805 4.564-3.224 4.519-2.486 10.847 1.862 14.521a10.77 10.77 0 0 0 6.943 2.53h4.629a37.263 37.263 0 0 1-.582-6.545z"/><path class="st12" d="M90.465 44.385v31.306c0 2.117.185 4.334.581 6.545 2.217 12.67 10.689 23.003 20.743 27.481 10.172 4.909 22.174 4.93 32.433-.011 10.743-5.146 18.665-15.21 20.764-27.47.337-2.068.56-4.151.56-6.545V44.385H90.465z"/><path class="st13" d="M237.623 65.185H178.14c3.214 4.478 2.501 10.855-1.862 14.521a10.792 10.792 0 0 1-6.943 2.53h-4.349c-2.099 12.26-10.021 22.325-20.764 27.47-10.258 4.941-22.261 4.919-32.433.011-10.054-4.478-18.525-14.811-20.743-27.481h-4.629a10.77 10.77 0 0 1-6.943-2.53c-4.353-3.677-5.083-10.006-1.862-14.521H18.377C12.65 65.185 8 69.824 8 75.561v116.136c0 5.737 4.65 10.377 10.377 10.377h219.247c5.726 0 10.377-4.639 10.377-10.377V75.561c-.001-5.737-4.651-10.376-10.378-10.376z"/><path d="M233.479 79.706v107.845H22.521V79.706h56.954a10.77 10.77 0 0 0 6.943 2.53h4.629c2.217 12.67 10.689 23.003 20.743 27.481 10.172 4.909 22.174 4.93 32.433-.011 10.743-5.146 18.665-15.21 20.764-27.47h4.349c2.648 0 5.059-.958 6.943-2.53h57.2z" style="fill:#72c1e8"/><path d="M207.28 164.311v23.24H48.72v-23.24c0-17.51 11.4-29.18 25.45-33.06l37.62-10.05s4.54 14.59 16.21 14.59 16.22-14.59 16.22-14.59l37.62 10.05c14.3 3.95 25.44 15.82 25.44 33.06z" style="fill:#13bf6d"/><path style="fill:#878787" d="M147.701 231.357h-39.402l2.067-29.287h35.268z"/><path class="st13" d="M164.197 231.357H91.803c-10.301 0-18.674 8.337-18.674 18.674H182.87c.001-10.312-8.361-18.674-18.673-18.674z"/><path class="st6" d="M32.9 178.634a2.5 2.5 0 0 1-2.5-2.5V90.325a2.5 2.5 0 0 1 2.5-2.5h20.191a2.5 2.5 0 1 1 0 5H35.4v83.309a2.5 2.5 0 0 1-2.5 2.5zm46.392-85.809h-16.2a2.5 2.5 0 1 1 0-5h16.2a2.5 2.5 0 1 1 0 5zM223.1 178.634a2.5 2.5 0 0 1-2.5-2.5v-3a2.5 2.5 0 1 1 5 0v3a2.5 2.5 0 0 1-2.5 2.5zm0-13a2.5 2.5 0 0 1-2.5-2.5V92.825h-44.896a2.5 2.5 0 1 1 0-5H223.1a2.5 2.5 0 0 1 2.5 2.5v72.809a2.5 2.5 0 0 1-2.5 2.5z"/><path d="M59.566 183.349a2.5 2.5 0 0 1-2.5-2.5v-5a2.5 2.5 0 1 1 5 0v5a2.5 2.5 0 0 1-2.5 2.5zm0-15a2.5 2.5 0 0 1-2.5-2.5c0-14.292 8.887-23.873 20.749-27.147l24.729-6.604a2.502 2.502 0 0 1 1.289 4.832l-24.708 6.598c-9.863 2.722-17.059 10.651-17.059 22.322a2.5 2.5 0 0 1-2.5 2.499z" style="fill:#76ffba"/><path d="M139.664 90.458c-.236 6.242-5.364 11.215-11.663 11.215-6.3 0-11.427-4.973-11.663-11.215h23.326z" style="fill:#fc5d3d"/><path d="m167.455 10.623-6.797-4.653a12.885 12.885 0 0 1-12.655 10.484h-40.5c-9.305 0-17.042 7.532-17.042 17.042v10.889h75.084l4.692-4.783c8.335-8.418 6.929-22.357-2.782-28.979z" style="fill:#7c7b7a"/><path class="st13" d="M90.461 44.385v21.226l15.078-21.226zM150.464 44.385l15.082 21.226V44.385zM160.451 38.161a2.5 2.5 0 0 1-.021-3.536l1.379-1.396a2.5 2.5 0 0 1 3.556 3.515l-1.379 1.396a2.5 2.5 0 0 1-3.535.021zm7.281-9.431a2.5 2.5 0 0 1-2.5-2.49 8.433 8.433 0 0 0-3.297-6.69 2.5 2.5 0 0 1 3.053-3.96c3.315 2.556 5.227 6.431 5.244 10.629a2.5 2.5 0 0 1-2.489 2.51l-.011.001z"/><path class="st12" d="M111.79 109.721v11.48s4.54 14.59 16.21 14.59 16.22-14.59 16.22-14.59v-11.49c-10.26 4.94-22.26 4.91-32.43.01z"/><circle transform="rotate(-45.001 128.013 163.623)" cx="128.015" cy="163.621" style="fill:#f2e1d6" r="13.597"/><circle cx="151.39" cy="250.03" r="2.5"/><path d="M128 104.171c7.621 0 13.869-5.991 14.16-13.62a2.491 2.491 0 0 0-2.5-2.59h-23.32c-1.433 0-2.563 1.203-2.5 2.59.292 7.701 6.614 13.62 14.16 13.62zm8.689-11.21a9.143 9.143 0 0 1-8.689 6.21 9.153 9.153 0 0 1-8.69-6.21h17.379zM110.531 70.479a2.5 2.5 0 0 0 2.5-2.5v-4.42a2.5 2.5 0 1 0-5 0v4.42a2.5 2.5 0 0 0 2.5 2.5zM145.471 70.479a2.5 2.5 0 0 0 2.5-2.5v-4.42a2.5 2.5 0 1 0-5 0v4.42a2.5 2.5 0 0 0 2.5 2.5zM128.001 80.254a2.5 2.5 0 0 0 2.5-2.5V64.81a2.5 2.5 0 1 0-5 0v12.944a2.5 2.5 0 0 0 2.5 2.5zM191.78 132.7s0-.01-.011-.01c-1.16-.66-2.75-.23-3.41.92a2.497 2.497 0 0 0 .921 3.42h.01c1.124.669 2.701.303 3.399-.92.691-1.2.281-2.72-.909-3.41z"/><path d="M5.5 75.561v116.136c0 7.101 5.776 12.877 12.877 12.877h89.306l-1.714 24.287H91.8c-11.675 0-21.17 9.433-21.17 21.17 0 1.393 1.136 2.5 2.5 2.5h68.26a2.5 2.5 0 0 0 0-5H75.82c1.24-7.91 7.95-13.66 15.98-13.67h72.4c8.029.01 14.739 5.76 15.97 13.67h-18.78a2.5 2.5 0 0 0 0 5h21.48c1.393 0 2.5-1.119 2.5-2.5 0-11.67-9.5-21.17-21.17-21.17h-14.169l-1.714-24.287h89.306c7.101 0 12.877-5.776 12.877-12.877V75.561c0-7.1-5.776-12.876-12.877-12.876h-58.288a13.274 13.274 0 0 0-10-4.564h-1.289V45.402l3.968-4.042c9.424-9.517 7.861-25.295-3.15-32.803l-6.793-4.65c-1.482-1.015-3.532-.177-3.868 1.597a10.392 10.392 0 0 1-10.199 8.45h-40.5c-10.775 0-19.541 8.766-19.541 19.542l-.001 24.625h-1.543a13.294 13.294 0 0 0-10 4.564H18.377c-7.101 0-12.877 5.776-12.877 12.876zm139.518 153.3h-34.037l1.714-24.287h30.608l1.715 24.287zM200.18 139.3c-.92-.97-2.56-1.02-3.54-.1a2.498 2.498 0 0 0-.1 3.53c5.38 5.72 8.229 13.18 8.24 21.58v20.74c-5.63 0-20.948-.01-26.576-.01v-15.696a2.5 2.5 0 1 0-5 0v15.696H82.799V170.9a2.5 2.5 0 1 0-5 0v14.141H51.208c.019-.395.012-20.335.012-20.73.03-14.82 9.08-26.57 23.62-30.65l35.42-9.46c3.355 7.702 9.268 14.087 17.74 14.087 10.446 0 15.807-9.589 17.747-14.085l35.442 9.468c1.311.35 2.71-.47 3.061-1.77a2.51 2.51 0 0 0-1.771-3.07l-35.758-9.543v-8.061a40.045 40.045 0 0 0 20.307-26.491h2.306a13.35 13.35 0 0 0 7.79-2.535h53.855v102.84H209.78v-20.73c0-10.046-3.602-18.676-9.6-25.011zM92.965 46.885h7.73l-7.73 10.884V46.885zm0 28.806v-9.288l13.864-19.518h42.344l13.873 19.53v9.276c0 13.919-7.973 26.046-19.909 31.763-9.248 4.454-20.6 4.673-30.331-.021-11.17-4.976-19.841-17.629-19.841-31.742zm62.342-28.806h7.734v10.889l-7.734-10.889zm-13.585 66.584v7.296c-2.281 6.246-6.984 12.515-13.722 12.515h-.021c-6.754 0-11.561-6.567-13.69-12.495v-7.305c8.811 3.205 18.614 3.194 27.433-.011zm27.613-50.348c4.555 0 8.296 3.71 8.296 8.307 0 4.585-3.707 8.308-8.296 8.308h-1.495c.119-1.173.206-2.714.206-4.045v-12.57h1.289zM92.962 33.496c0-8.018 6.523-14.542 14.541-14.542h40.5c6.135 0 11.561-3.636 14.008-9.029l4.032 2.76.004.002c8.435 5.752 9.638 17.858 2.406 25.162l-3.961 4.035h-71.53v-8.388zm-6.544 29.625h1.543l.004 12.57c0 1.14.051 2.582.214 4.045h-1.761c-4.62 0-8.297-3.763-8.297-8.308 0-4.44 3.562-8.307 8.297-8.307zM10.5 75.561c0-4.343 3.533-7.876 7.877-7.876h55.286a13.221 13.221 0 0 0 .789 9.526H22.52c-1.41 0-2.5 1.144-2.5 2.49v63.84a2.5 2.5 0 0 0 5 0V82.2h53.604a13.315 13.315 0 0 0 7.794 2.535h2.592c2.653 11.584 10.247 21.513 20.279 26.544v8.005l-35.77 9.546c-15.856 4.307-27.339 17.683-27.3 35.48 0 .395-.007 20.335.012 20.73H25.02v-21.5a2.5 2.5 0 0 0-5 0v24c0 1.372 1.117 2.5 2.5 2.5h210.96c1.364 0 2.5-1.092 2.5-2.5V79.7c0-1.36-1.098-2.49-2.5-2.49h-52.175a13.27 13.27 0 0 0 .787-9.526h55.531c4.344 0 7.877 3.533 7.877 7.876v116.136c0 4.343-3.533 7.877-7.877 7.877H18.377c-4.344 0-7.877-3.534-7.877-7.877V75.561z"/><circle cx="22.52" cy="153.541" r="2.5"/><path d="m141.514 148.336-2.916 3.186c-2.833-2.481-6.53-3.998-10.583-3.998-8.876 0-16.097 7.221-16.097 16.097s7.221 16.097 16.097 16.097 16.097-7.221 16.097-16.097c0-3.006-.843-5.812-2.283-8.222l3.374-3.687a2.5 2.5 0 1 0-3.689-3.376zm-2.403 15.285c0 6.119-4.978 11.097-11.097 11.097s-11.097-4.978-11.097-11.097 4.978-11.097 11.097-11.097c2.754 0 5.271 1.014 7.213 2.681l-7.293 7.969-3.824-3.824a2.498 2.498 0 0 0-3.535 0 2.498 2.498 0 0 0 0 3.535l5.672 5.672a2.499 2.499 0 0 0 3.611-.08l8.384-9.161c.559 1.325.869 2.779.869 4.305z"/></g></svg>