<svg xmlns="http://www.w3.org/2000/svg" viewBox="0 0 256 256" width="300" style="enable-background:new 0 0 256 256" xml:space="preserve"><style>.st2{fill:#fff}.st9{fill:#efefef}</style><g id="Layer_1"><path class="st9" d="M203.6 38.25v81.87h-12.72a15.61 15.61 0 0 1-12.52-6.287l-5.988-8.041a15.625 15.625 0 0 0-12.532-6.293H142.1a14.019 14.019 0 0 0-8.41-2.82h-31.269a19.971 19.971 0 0 0-14.251 5.98l-4.843 4.933a19.993 19.993 0 0 1-14.267 5.987H52.73V17.75a5 5 0 0 1 5-5H178.1l25.5 25.5zM184.32 182.13h19.28v56.12a5 5 0 0 1-5 5H57.73a5 5 0 0 1-5-5v-62.67h7.35c4.74 0 9.23 1.7 12.71 4.67 3.55 3.01 8.06 4.66 12.71 4.66h8.22c1.19 3.49 4.51 5.99 8.37 5.99h54.98c3.02 0 6.01-.69 8.74-2.01l9.77-4.75c2.72-1.32 5.71-2.01 8.74-2.01z"/><path d="M184.32 182.13c-3.03 0-6.02.69-8.74 2.01l-9.77 4.75a20.091 20.091 0 0 1-8.74 2.01h-54.98c-3.86 0-7.18-2.5-8.37-5.99H85.5c-4.65 0-9.16-1.65-12.71-4.66a19.57 19.57 0 0 0-12.71-4.67h-7.35v11.72h7.35c4.74 0 9.23 1.7 12.71 4.67 3.55 3.01 8.06 4.66 12.71 4.66h8.22c1.19 3.49 4.51 5.99 8.37 5.99h54.98c3.02 0 6.01-.69 8.74-2.01l9.77-4.75c2.72-1.32 5.71-2.01 8.74-2.01h19.28v-11.72h-19.28z" style="fill:#7c7b7a"/><path d="M29.73 110.637a4.98 4.98 0 0 0-4.97-4.56H3.57v75.97h21.19c2.61 0 4.76-2 4.97-4.56.02-.14.03-.29.03-.44v-65.97c0-.15-.01-.3-.03-.44z" style="fill:#fc5d3d"/><path class="st2" d="M226.27 185.52h-10.7c-2.26 0-4.1-1.51-4.73-3.39 0 0-.27-1.3-.27-2.01v-56.45c0-1.36.56-2.63 1.48-3.55.9-.89 2.13-1.45 3.52-1.45h10.7v66.85z"/><path d="M18.25 161.446a2.5 2.5 0 0 1-2.5-2.5v-1.283a2.5 2.5 0 1 1 5 0v1.283a2.5 2.5 0 0 1-2.5 2.5zm0-16.283a2.5 2.5 0 0 1-2.5-2.5v-22.875h-2.125a2.5 2.5 0 1 1 0-5h4.625a2.5 2.5 0 0 1 2.5 2.5v25.375a2.5 2.5 0 0 1-2.5 2.5z" style="fill:#ffcbc2"/><path d="M210.57 180.12c0 .71.27 2.01.27 2.01h-26.52c-3.03 0-6.02.69-8.74 2.01l-9.77 4.75a20.091 20.091 0 0 1-8.74 2.01h-54.98c-3.86 0-7.18-2.5-8.37-5.99H85.5c-4.65 0-9.16-1.65-12.71-4.66a19.57 19.57 0 0 0-12.71-4.67H44.34c.69-.85 1.09-1.93 1.09-3.09v-56.85c0-.73-.16-1.43-.45-2.06h24.08c5.37 0 10.51-2.16 14.27-5.99l4.84-4.93c3.76-3.83 8.9-5.98 14.27-5.98h31.25c3.12 0 6.05 1.05 8.41 2.82h17.74c4.94 0 9.58 2.33 12.53 6.29l5.98 8.03c2.95 3.96 7.59 6.3 12.53 6.3h21.17c-.92.92-1.48 2.19-1.48 3.55v56.45z" style="fill:#ffb69f"/><path class="st2" d="M44.98 113.58c-.78-1.71-2.49-2.94-4.55-2.94h-10.7c.02.14.03.29.03.44v65.97c0 .15-.01.3-.03.44h10.7c1.59 0 3.01-.75 3.91-1.91.69-.85 1.09-1.93 1.09-3.09v-56.85c0-.73-.16-1.43-.45-2.06z"/><path d="M231.24 114.107c-2.61 0-4.76 2-4.97 4.56v66.853a4.98 4.98 0 0 0 4.97 4.56h21.19v-75.973h-21.19z" style="fill:#72c1e8"/><path class="st2" d="M226.27 118.67h-10.7c-1.39 0-2.62.56-3.52 1.45-.92.92-1.48 2.19-1.48 3.55v56.45c0 .71.27 2.01.27 2.01.63 1.88 2.47 3.39 4.73 3.39h10.7v-66.85z"/><path d="M241.663 167.119a2.5 2.5 0 0 1-2.5-2.5v-3.283a2.5 2.5 0 1 1 5 0v3.283a2.5 2.5 0 0 1-2.5 2.5zm0-13.283a2.5 2.5 0 0 1-2.5-2.5v-25.875h-2.125a2.5 2.5 0 1 1 0-5h4.625a2.5 2.5 0 0 1 2.5 2.5v28.375a2.5 2.5 0 0 1-2.5 2.5z" style="fill:#c5e5ff"/><path d="m159.75 37.38-8.82-1.28-3.95-8.01c-1.05-2.12-4.07-2.12-5.13 0l-3.93 8.01-5.65.82c-.53-1.05-1.02-2.06-1.44-2.89-1.04-2.12-4.06-2.12-5.12 0-1.56 3.16-1.11 2.24-1.46 2.96l-6.17-.89-3.94-8.01c-1.05-2.12-4.08-2.12-5.12 0l-3.95 8.01-8.82 1.28c-2.35.33-3.27 3.21-1.59 4.86l6.4 6.23-1.52 8.79c-.4 2.34 2.05 4.11 4.15 3.01l7.89-4.15 5.38 2.84-.73 4.24c-.4 2.33 2.05 4.11 4.15 3.01l7.89-4.15 7.91 4.15c2.08 1.1 4.53-.68 4.13-3.01l-.77-4.52 4.88-2.56 7.89 4.15c2.1 1.1 4.55-.67 4.15-3.01l-1.52-8.79 6.4-6.23c1.68-1.65.76-4.53-1.59-4.86z" style="fill:#f0c020"/><path d="M228.77 118.787c.144-1.229 1.213-2.18 2.47-2.18h21.104a2.51 2.51 0 0 0 2.586-2.5 2.5 2.5 0 0 0-2.5-2.5h-21.19c-3.055 0-5.734 1.881-6.885 4.563h-8.795a7.531 7.531 0 0 0-4.411 1.45H206.1V38.25a2.52 2.52 0 0 0-.735-1.77L179.87 10.985a2.569 2.569 0 0 0-1.77-.735H57.73c-4.136 0-7.5 3.364-7.5 7.5v93.33h-3.879c-1.404-1.818-3.576-2.94-5.921-2.94h-8.785c-1.15-2.682-3.83-4.563-6.885-4.563H3.57a2.5 2.5 0 1 0 0 5h21.19c1.286 0 2.374.995 2.478 2.264.041.463.018 66.231 0 66.441-.104 1.27-1.192 2.264-2.478 2.264H3.57a2.5 2.5 0 1 0 0 5h21.19c3.052 0 5.73-1.878 6.882-4.557h8.788c1.87 0 3.625-.693 4.979-1.91h4.821v60.17c0 4.136 3.364 7.5 7.5 7.5H198.6c4.136 0 7.5-3.364 7.5-7.5v-53.62h3.227a7.53 7.53 0 0 0 6.243 3.39h8.787c1.151 2.681 3.829 4.56 6.883 4.56h21.19c1.381 0 2.5-1.122 2.5-2.503a2.495 2.495 0 0 0-2.586-2.497H231.24c-1.257 0-2.326-.951-2.47-2.18v-66.612zm-20.7 4.883v55.96h-23.75c-3.385 0-6.784.782-9.833 2.262l-9.765 4.748a17.682 17.682 0 0 1-7.652 1.761h-54.98a6.332 6.332 0 0 1-6.324-6.743c.181-3.054 2.679-5.833 6.722-5.955h31.909a2.5 2.5 0 1 0 0-5H90.721c-3.583 0-6.351-2.913-6.351-6.342a6.358 6.358 0 0 1 6.35-6.35h42.97a2.5 2.5 0 1 0 0-5H85.31a6.358 6.358 0 0 1-6.35-6.35 6.357 6.357 0 0 1 6.348-6.35c19.289.019-4.441 0 48.382 0a2.5 2.5 0 1 0 0-5H95.14c-3.581 0-6.34-2.918-6.34-6.35a6.347 6.347 0 0 1 6.34-6.34h38.769l3.451 5.202c3.419 5.209 10.497 6.696 15.786 3.309 5.39-3.479 6.873-10.674 3.337-15.984L147.751 102h12.089c4.126 0 8.061 1.975 10.525 5.283l5.98 8.03c3.408 4.576 8.841 7.307 14.535 7.307h17.266a8.765 8.765 0 0 0-.076 1.05zM180.6 18.786l16.964 16.964H180.6V18.786zM55.23 17.75c0-1.378 1.122-2.5 2.5-2.5H175.6v23a2.5 2.5 0 0 0 2.5 2.5h23v76.87h-10.22a13.187 13.187 0 0 1-10.525-5.293l-5.98-8.03A18.205 18.205 0 0 0 159.84 97h-16.944a16.621 16.621 0 0 0-9.206-2.82h-31.25c-6.004 0-11.856 2.453-16.054 6.729l-4.84 4.93a17.603 17.603 0 0 1-12.486 5.242H55.23V17.75zM32.26 174.99v-61.85h8.17c1.474 0 2.5 1.231 2.5 2.5v56.85c0 1.337-1.097 2.5-2.5 2.5h-8.17zm15.67-2.5v-56.41h21.13c5.998 0 11.85-2.456 16.054-6.739l4.84-4.93c3.264-3.325 7.815-5.231 12.486-5.231h31.25c2.497 0 4.887.802 6.91 2.32l.006.004.004.004a11.375 11.375 0 0 1 2.756 2.928l.007.011c.004.006.01.01.013.016l.011.021 8.921 13.433c2.018 3.029 1.114 7.079-1.877 9.009-2.986 1.913-6.979 1.083-8.909-1.857l-4.2-6.33a2.5 2.5 0 0 0-2.083-1.118H95.14c-6.253 0-11.34 5.087-11.34 11.34 0 2.351.716 4.537 1.942 6.351-7.222-.008-11.782 5.485-11.782 11.35 0 5.01 3.263 9.271 7.774 10.773a11.296 11.296 0 0 0-2.364 6.927c0 6.258 5.091 11.35 11.35 11.35h2.017a11.047 11.047 0 0 0-1.977 6.7H85.5c-4.061 0-8-1.444-11.087-4.062a22.091 22.091 0 0 0-14.333-5.268H47.908c.015-.197.022-.394.022-.592zm153.17 65.76c0 1.378-1.122 2.5-2.5 2.5H57.73a2.503 2.503 0 0 1-2.5-2.5v-60.17h4.85a17.09 17.09 0 0 1 11.093 4.077A22.175 22.175 0 0 0 85.5 187.41h6.589a11.344 11.344 0 0 0 10.001 5.99h54.98c3.373 0 6.771-.781 9.833-2.261l9.769-4.75a17.615 17.615 0 0 1 7.648-1.759h16.78v53.62zm14.43-55.23c-1.073 0-2.46-.771-2.46-2.9v-56.45c0-1.195.962-2.5 2.5-2.5h8.2c-.012 6.06-.016 56.077 0 61.85h-8.24z"/><path d="M82.75 84h90.5a2.5 2.5 0 1 0 0-5h-90.5a2.5 2.5 0 1 0 0 5zM181.212 213.583H74.788a2.5 2.5 0 1 0 0 5h106.424a2.5 2.5 0 1 0 0-5zM98.369 49.342l-1.292 7.495c-.755 4.375 3.847 7.711 7.773 5.647l6.727-3.535 2.613 1.376-.419 2.448c-.754 4.372 3.841 7.715 7.773 5.648l6.729-3.537 6.734 3.534c3.931 2.076 8.52-1.284 7.767-5.641l-.464-2.723 2.11-1.106 6.729 3.536c3.927 2.064 8.529-1.269 7.773-5.647l-1.292-7.495 5.455-5.313.005-.005c3.166-3.099 1.402-8.498-2.978-9.118l-7.525-1.091-3.368-6.837c-1.971-3.963-7.63-3.977-9.613.011l-3.352 6.826-2.554.37-.625-1.26c-1.956-3.976-7.623-3.988-9.602-.008l-.665 1.34-3.066-.442-3.362-6.826c-1.956-3.979-7.648-3.984-9.605-.002l-3.364 6.829-7.516 1.09c-4.393.621-6.154 6.018-2.982 9.124l5.456 5.312zm39.906-10.768a2.498 2.498 0 0 0 1.886-1.372l3.928-7.998a.361.361 0 0 1 .649-.008l3.946 8.009a2.5 2.5 0 0 0 1.884 1.369l8.836 1.281a.347.347 0 0 1 .19.595l-6.395 6.229a2.501 2.501 0 0 0-.719 2.216l1.517 8.792a.354.354 0 0 1-.521.371l-7.891-4.147a2.5 2.5 0 0 0-2.324-.001l-.794.417 4.467-4.36c3.175-3.086 1.435-8.489-2.954-9.136l-.006-.001-7.539-1.091-.414-.838 2.254-.327zm-9.683-3.436 3.944 7.994a2.5 2.5 0 0 0 1.883 1.367l8.833 1.279c.29.043.41.397.194.608l-6.386 6.232a2.501 2.501 0 0 0-.718 2.213c.622 3.611.267 1.536 1.505 8.792a.349.349 0 0 1-.51.371l-7.903-4.147a2.505 2.505 0 0 0-2.325.001l-7.891 4.147a.354.354 0 0 1-.52-.376l1.504-8.788a2.5 2.5 0 0 0-.718-2.213l-6.39-6.236a.354.354 0 0 1 .204-.604l8.827-1.28a2.498 2.498 0 0 0 1.882-1.367c.989-2.002 2.951-5.992 3.943-7.992a.355.355 0 0 1 .642-.001zm-31.988 4.716 8.827-1.28a2.5 2.5 0 0 0 1.884-1.369l3.947-8.012a.351.351 0 0 1 .632.002l3.945 8.009a2.5 2.5 0 0 0 1.886 1.37l2.761.398-.378.766-7.53 1.092c-4.397.644-6.144 6.049-2.972 9.133l5.113 4.99-1.978-1.041a2.502 2.502 0 0 0-2.328 0l-7.891 4.147a.355.355 0 0 1-.521-.372l1.517-8.792a2.501 2.501 0 0 0-.719-2.216l-6.394-6.228c-.198-.197-.116-.552.199-.597z"/></g></svg>