<svg xmlns="http://www.w3.org/2000/svg" viewBox="0 0 256 256" width="350" style="enable-background:new 0 0 256 256" xml:space="preserve"><style>.st3{fill:#f0c020}.st6{fill:#c5e5ff}</style><g id="Layer_1"><circle cx="128.002" cy="127.998" r="77.945" style="fill:#72c1e8"/><path class="st6" d="M80.311 175.689a2.498 2.498 0 0 1 0-3.535 2.498 2.498 0 0 1 3.535 0c21.144 21.143 53.259 23.665 77.033 8.943a2.5 2.5 0 1 1 2.632 4.251c-25.676 15.9-60.356 13.185-83.2-9.659zm88.046 3.26a2.5 2.5 0 0 1 .27-3.525 63.377 63.377 0 0 0 3.53-3.271 2.501 2.501 0 0 1 3.535 3.536 68.613 68.613 0 0 1-3.81 3.529 2.499 2.499 0 0 1-3.525-.269zM80.311 83.842a2.498 2.498 0 0 1 0-3.535 67.854 67.854 0 0 1 3.809-3.53 2.5 2.5 0 0 1 3.255 3.795 63.283 63.283 0 0 0-3.529 3.27 2.498 2.498 0 0 1-3.535 0zm91.846 0c-11.774-11.774-27.455-18.259-44.155-18.259-11.666 0-23.036 3.221-32.878 9.316a2.499 2.499 0 1 1-2.632-4.251c10.634-6.584 22.913-10.065 35.51-10.065 18.035 0 34.972 7.004 47.69 19.724a2.498 2.498 0 0 1 0 3.535 2.498 2.498 0 0 1-3.535 0z"/><path d="m107.737 165.149-27.396-27.396a9.038 9.038 0 0 1 0-12.779 9.038 9.038 0 0 1 12.779 0l21.006 21.007 48.755-48.756a9.036 9.036 0 1 1 12.779 12.779l-55.145 55.145a9.035 9.035 0 0 1-12.778 0z" style="fill:#13bf6d"/><path d="M54.812 101.008c-1.29-.43-2.74.31-3.16 1.58-.44 1.31.27 2.73 1.58 3.17 1.368.422 2.735-.303 3.16-1.59a2.486 2.486 0 0 0-1.58-3.16zM128.002 47.548c-31.77.021-59.387 18.418-72.47 45.49-.6 1.24-.08 2.73 1.17 3.33 1.2.59 2.74.04 3.33-1.15v-.01c12.53-25.91 39.21-42.66 67.98-42.66 42.088 0 75.395 33.969 75.44 75.45-.011 9.8-1.86 19.33-5.5 28.32a2.49 2.49 0 0 0 1.38 3.26c1.265.505 2.729-.078 3.25-1.38 3.899-9.6 5.87-19.76 5.859-30.2.046-44.232-35.82-80.422-80.439-80.45zM194.691 168.438c1.237.683 2.755.228 3.41-.95.681-1.2.25-2.72-.95-3.4-1.17-.66-2.75-.21-3.409.95a2.496 2.496 0 0 0 .949 3.4zM49.032 112.578a80.987 80.987 0 0 0-1.47 15.42c0 44.354 35.881 80.404 80.44 80.45 25.726 0 49.438-12.216 64.46-32.32a2.493 2.493 0 0 0-.5-3.5c-1.08-.8-2.7-.57-3.5.51-14.41 19.26-36.45 30.3-60.46 30.3h-.01c-41.243 0-75.44-33.379-75.44-75.44 0-4.86.47-9.73 1.39-14.47.26-1.35-.62-2.67-1.98-2.93-1.33-.26-2.67.65-2.93 1.98z"/><path d="M140.792 141.338a2.503 2.503 0 0 0 0 3.53c.95.95 2.59.95 3.54 0l33.1-33.1c4.516-4.517 4.493-11.817 0-16.31-4.505-4.506-11.808-4.512-16.32 0l-46.979 46.99-19.24-19.24c-4.496-4.498-11.799-4.521-16.32 0a11.52 11.52 0 0 0 0 16.31l27.4 27.4c4.562 4.562 11.875 4.456 16.31 0l7.9-7.9a2.484 2.484 0 0 0 0-3.54c-.939-.94-2.58-.94-3.52-.01 0 .01-.01.01-.01.01l-7.9 7.9a6.537 6.537 0 0 1-9.25 0l-27.39-27.39a6.528 6.528 0 0 1 0-9.24 6.514 6.514 0 0 1 9.24 0l21.01 21c.94.94 2.58.95 3.53 0l48.76-48.76c2.551-2.55 6.701-2.551 9.24.01a6.527 6.527 0 0 1 0 9.24l-33.101 33.1z"/><path d="M133.721 148.408c-.97.98-.97 2.56 0 3.53a2.485 2.485 0 0 0 3.54 0 2.495 2.495 0 0 0 0-3.53c-.95-.95-2.599-.95-3.54 0z"/><g><path class="st3" d="m128.002 4.498 5.603 9.027 10.417 2.613-6.954 8.045.835 10.788-9.901-4.201-9.901 4.201.835-10.788-6.955-8.045 10.418-2.613zM128.002 221.025l5.603 9.027 10.417 2.613-6.954 8.045.835 10.788-9.901-4.201-9.901 4.201.835-10.788-6.955-8.045 10.418-2.613zM181.784 19.58l5.604 9.026 10.417 2.613-6.955 8.045.836 10.788-9.902-4.201-9.901 4.201.835-10.788-6.954-8.045 10.417-2.613zM223.603 60.472l5.604 9.027 10.417 2.613-6.955 8.045.836 10.788-9.902-4.201-9.901 4.201.835-10.788-6.954-8.045L218 69.499zM235.014 114.929l5.603 9.027 10.417 2.613-6.954 8.045.835 10.788-9.901-4.201-9.901 4.201.835-10.788-6.955-8.045 10.418-2.613zM223.351 167.796l5.604 9.026 10.417 2.613-6.954 8.045.835 10.788-9.902-4.201-9.901 4.201.835-10.788-6.954-8.045 10.417-2.613zM182.459 209.615l5.603 9.026 10.417 2.613-6.954 8.045.835 10.788-9.901-4.201-9.901 4.201.835-10.788-6.955-8.045 10.418-2.613zM74.219 19.58l-5.603 9.026-10.417 2.613 6.954 8.045-.835 10.788 9.901-4.201 9.901 4.201-.835-10.788 6.955-8.045-10.418-2.613zM32.4 60.472l-5.603 9.027-10.417 2.613 6.954 8.045-.835 10.788 9.901-4.201 9.901 4.201-.835-10.788 6.955-8.045-10.418-2.613zM20.99 114.929l-5.603 9.027-10.418 2.613 6.955 8.045-.835 10.788 9.901-4.201 9.901 4.201-.835-10.788 6.954-8.045-10.417-2.613zM32.652 167.796l-5.603 9.026-10.417 2.613 6.954 8.045-.835 10.788 9.901-4.201 9.901 4.201-.835-10.788 6.955-8.045-10.418-2.613zM73.545 209.615l-5.603 9.026-10.418 2.613 6.955 8.045-.835 10.788 9.901-4.201 9.901 4.201-.835-10.788 6.954-8.045-10.417-2.613z"/><path d="m110.092 17.768 6.27 7.26-.75 9.75c-.153 1.933 1.818 3.211 3.47 2.49l8.92-3.78 8.93 3.78c1.67.718 3.613-.576 3.46-2.49l-.75-9.75 6.27-7.26c1.216-1.408.525-3.594-1.28-4.06l-9.44-2.36-5.07-8.17c-.967-1.57-3.273-1.569-4.24 0l-5.07 8.17-9.44 2.36c-1.803.466-2.498 2.65-1.28 4.06zm12.91-1.82c.64-.16 1.18-.55 1.52-1.11l3.48-5.6 3.48 5.6c.34.56.88.95 1.51 1.11l6.48 1.63-4.3 4.97c-.44.51-.65 1.16-.6 1.83l.52 6.68-6.11-2.59a2.56 2.56 0 0 0-1.96 0l-6.11 2.59.52-6.68c.05-.67-.16-1.32-.61-1.83l-4.29-4.97 6.47-1.63zM144.632 230.238l-9.44-2.36-5.07-8.17c-.966-1.568-3.271-1.573-4.24 0l-5.07 8.16-9.44 2.37c-1.817.471-2.49 2.658-1.28 4.06l6.27 7.26-.75 9.75c-.148 1.845 1.715 3.226 3.47 2.49l8.92-3.79 8.93 3.79c1.744.73 3.61-.635 3.46-2.49l-.75-9.75 6.27-7.26c1.231-1.426.498-3.621-1.28-4.06zm-9.46 8.84c-.43.5-.65 1.17-.6 1.82l.52 6.69-6.11-2.59a2.49 2.49 0 0 0-1.96 0l-6.11 2.59.52-6.69a2.48 2.48 0 0 0-.61-1.82l-4.29-4.98 6.47-1.62a2.52 2.52 0 0 0 1.52-1.11l3.48-5.6 3.48 5.6c.34.56.88.95 1.51 1.11l6.48 1.62-4.3 4.98zM165.156 28.794c-1.802.452-2.5 2.651-1.283 4.06l6.273 7.257-.755 9.749c-.145 1.871 1.751 3.225 3.469 2.494l8.925-3.787 8.924 3.787c1.712.727 3.615-.615 3.469-2.494l-.755-9.749 6.273-7.257c1.22-1.41.517-3.609-1.283-4.06l-9.436-2.367-5.069-8.167c-.977-1.575-3.272-1.573-4.248 0l-5.07 8.167-9.434 2.367zm13.149 1.131 3.479-5.605 3.479 5.605c.342.552.886.949 1.516 1.106l6.479 1.625-4.299 4.974a2.499 2.499 0 0 0-.602 1.828l.518 6.687-6.114-2.594a2.498 2.498 0 0 0-1.953 0l-6.115 2.594.518-6.687a2.504 2.504 0 0 0-.601-1.828l-4.299-4.974 6.479-1.625a2.501 2.501 0 0 0 1.515-1.106zM221.482 59.148l-5.07 8.17-9.44 2.37c-1.789.442-2.503 2.644-1.28 4.06l6.27 7.26-.75 9.74a2.498 2.498 0 0 0 3.47 2.5l8.92-3.79 8.93 3.79c1.696.721 3.6-.595 3.47-2.5l-.76-9.74 6.27-7.26c1.242-1.439.497-3.621-1.28-4.06l-9.44-2.37-5.06-8.17c-1.005-1.574-3.274-1.564-4.25 0zm5.599 11.67c.34.55.88.95 1.52 1.11l6.48 1.62-4.3 4.97c-.44.51-.66 1.16-.6 1.83l.51 6.69-6.11-2.59a2.469 2.469 0 0 0-1.95 0l-6.12 2.59.52-6.69c.05-.67-.16-1.32-.6-1.83l-4.3-4.97 6.48-1.62a2.5 2.5 0 0 0 1.51-1.11l3.48-5.6 3.48 5.6zM251.641 124.148l-9.43-2.37-5.07-8.17c-.997-1.582-3.288-1.559-4.25 0l-5.07 8.17-9.44 2.37c-1.777.444-2.51 2.614-1.28 4.06l6.27 7.25-.75 9.75a2.504 2.504 0 0 0 3.47 2.5l8.92-3.79 8.93 3.79c1.705.704 3.599-.6 3.47-2.5l-.76-9.75 6.27-7.25c1.236-1.452.505-3.619-1.28-4.06zm-9.449 8.83c-.44.51-.66 1.16-.6 1.83l.51 6.69-6.11-2.6a2.474 2.474 0 0 0-1.95 0l-6.12 2.6.52-6.69c.05-.67-.16-1.32-.6-1.83l-4.3-4.97 6.48-1.63c.63-.15 1.17-.55 1.51-1.1l3.48-5.61 3.48 5.61c.35.55.89.95 1.52 1.1l6.48 1.63-4.3 4.97zM239.982 177.008l-9.44-2.36-5.07-8.17c-.966-1.568-3.271-1.573-4.24 0l-5.07 8.17-9.44 2.36c-1.82.471-2.498 2.65-1.28 4.06l6.27 7.26-.75 9.75c-.156 1.951 1.857 3.214 3.46 2.49l8.93-3.79 8.92 3.79c1.701.723 3.622-.59 3.47-2.49l-.75-9.75 6.27-7.26c1.211-1.404.534-3.59-1.28-4.06zm-9.46 8.84c-.44.5-.65 1.15-.6 1.83l.52 6.68-6.11-2.59a2.498 2.498 0 0 0-1.96 0l-6.11 2.59.52-6.68c.05-.68-.17-1.33-.61-1.83l-4.29-4.98 6.47-1.62c.64-.16 1.17-.55 1.52-1.11l3.48-5.6 3.48 5.6c.34.56.88.95 1.51 1.11l6.48 1.62-4.3 4.98zM199.092 218.828l-9.44-2.37-5.07-8.16c-.976-1.584-3.29-1.556-4.25 0l-5.07 8.16-9.43 2.37c-1.8.445-2.507 2.651-1.29 4.06l6.28 7.26-.76 9.75c-.147 1.821 1.71 3.229 3.47 2.49l8.93-3.79 8.92 3.79c1.722.733 3.621-.622 3.47-2.49l-.76-9.75 6.28-7.26c1.203-1.392.534-3.606-1.28-4.06zm-9.46 8.84c-.44.5-.65 1.15-.6 1.83l.52 6.68-6.12-2.59a2.465 2.465 0 0 0-1.95 0l-6.11 2.59.51-6.68c.06-.68-.16-1.33-.6-1.83l-4.3-4.98 6.48-1.62a2.51 2.51 0 0 0 1.52-1.11l3.48-5.6 3.48 5.6c.34.56.88.95 1.51 1.11l6.48 1.62-4.3 4.98zM56.312 32.858l6.27 7.25-.76 9.75c-.148 1.869 1.756 3.218 3.47 2.49l8.93-3.78 8.92 3.79a2.504 2.504 0 0 0 3.47-2.5l-.75-9.75 6.27-7.25c1.196-1.386.546-3.604-1.28-4.06l-9.44-2.37-5.07-8.17c-.959-1.555-3.253-1.582-4.25 0l-5.07 8.17-9.43 2.37c-1.797.443-2.514 2.635-1.28 4.06zm12.91-1.83c.64-.16 1.17-.55 1.52-1.1l3.48-5.61 3.48 5.61c.33.54.89.94 1.51 1.1l6.48 1.63-4.3 4.97c-.44.51-.65 1.16-.6 1.83l.52 6.69-6.12-2.6c-.62-.26-1.33-.26-1.95 0l-6.11 2.6.51-6.69c.06-.67-.16-1.32-.6-1.83l-4.3-4.97 6.48-1.63zM15.772 69.688c-1.779.44-2.52 2.623-1.28 4.06l6.27 7.26-.76 9.74c-.128 1.877 1.732 3.228 3.47 2.5l8.93-3.79 8.92 3.79c1.716.729 3.619-.62 3.47-2.5l-.75-9.74 6.27-7.26c1.229-1.424.5-3.615-1.28-4.06l-9.44-2.37-5.07-8.17c-.977-1.563-3.244-1.576-4.25 0l-5.07 8.17-9.43 2.37zm13.15 1.13 3.48-5.61 3.48 5.61c.34.55.89.95 1.51 1.11l6.48 1.62-4.3 4.97c-.44.51-.65 1.16-.6 1.83l.52 6.69-6.12-2.59c-.62-.27-1.33-.27-1.95 0l-6.11 2.59.52-6.69c.05-.67-.17-1.32-.61-1.83l-4.3-4.97 6.48-1.62c.64-.16 1.17-.55 1.52-1.11zM4.362 124.148c-1.812.448-2.508 2.662-1.28 4.06l6.27 7.25-.75 9.75c-.148 1.865 1.729 3.225 3.46 2.5l8.93-3.79 8.92 3.79c1.721.71 3.619-.621 3.47-2.5l-.75-9.75 6.27-7.25c1.196-1.386.546-3.604-1.28-4.06l-9.44-2.37-5.07-8.17c-.979-1.587-3.292-1.553-4.25 0l-5.07 8.17-9.43 2.37zm13.15 1.13 3.48-5.61 3.48 5.61c.34.55.88.94 1.51 1.1l6.48 1.63-4.3 4.97c-.44.51-.65 1.16-.6 1.83l.52 6.69-6.12-2.6c-.62-.26-1.33-.26-1.95 0l-6.11 2.6.51-6.69c.06-.67-.16-1.32-.6-1.83l-4.3-4.97 6.48-1.63c.64-.16 1.18-.55 1.52-1.1zM49.282 177.008l-9.44-2.36-5.06-8.17c-.997-1.582-3.288-1.559-4.25 0l-5.07 8.17-9.44 2.36c-1.817.471-2.49 2.658-1.28 4.06l6.27 7.26-.75 9.75c-.146 1.819 1.662 3.223 3.47 2.49l8.92-3.79 8.92 3.79c1.698.721 3.621-.586 3.47-2.49l-.75-9.75 6.27-7.26c1.219-1.412.539-3.589-1.28-4.06zm-9.451 8.84c-.44.5-.66 1.16-.61 1.82l.52 6.69-6.11-2.59a2.493 2.493 0 0 0-1.96 0l-6.11 2.59.52-6.69c.05-.67-.16-1.32-.61-1.82l-4.29-4.98 6.48-1.62c.63-.16 1.17-.55 1.51-1.11l3.48-5.6 3.48 5.6c.34.56.88.95 1.52 1.11l6.47 1.62-4.29 4.98zM55.632 222.888l6.28 7.26-.76 9.75c-.149 1.848 1.735 3.228 3.47 2.49l8.92-3.79 8.93 3.79c1.756.738 3.617-.664 3.47-2.49l-.76-9.75 6.28-7.26c1.219-1.411.507-3.616-1.29-4.06l-9.44-2.36-5.06-8.17c-.999-1.586-3.293-1.553-4.25 0l-5.07 8.16-9.43 2.37c-1.796.444-2.518 2.638-1.29 4.06zm12.92-1.82c.63-.16 1.17-.55 1.51-1.11l3.48-5.6 3.48 5.6c.34.55.89.95 1.52 1.11l6.48 1.62-4.3 4.98c-.44.51-.66 1.16-.6 1.82l.51 6.69-6.11-2.59c-.62-.27-1.33-.27-1.95 0l-6.12 2.59.52-6.69c.05-.67-.16-1.32-.6-1.82l-4.3-4.98 6.48-1.62z"/></g></g></svg>